<svg  viewBox="0 0 1080 1080" fill="none" xmlns="http://www.w3.org/2000/svg">
<rect x="25" y="25" width="1030" height="1030" rx="515" fill="#41D4DD"/>
<rect x="25" y="25" width="1030" height="1030" rx="515" stroke="black" stroke-width="50"/>
<path fill-rule="evenodd" clip-rule="evenodd" d="M518.111 354.43C372.799 354.43 255 472.229 255 617.541C255 762.853 372.799 924.504 518.111 924.504C626.974 924.504 720.395 833.777 760.412 727.163C808.335 726.566 847 687.532 847 639.467C847 595.763 815.033 559.525 773.206 552.86C744.387 438.822 641.105 354.43 518.111 354.43ZM776.992 623.62L767.912 657.506Z" fill="white"/>
<path d="M776.992 623.62L767.912 657.506M518.111 354.43C372.799 354.43 255 472.229 255 617.541C255 762.853 372.799 924.504 518.111 924.504C626.974 924.504 720.395 833.777 760.412 727.163C808.335 726.566 847 687.532 847 639.467C847 595.763 815.033 559.525 773.206 552.86C744.387 438.822 641.105 354.43 518.111 354.43Z" stroke="black" stroke-width="24" stroke-linecap="round" stroke-linejoin="round"/>
<path d="M389.844 596.711C353.301 611.328 335.03 629.6 335.03 651.526C335.03 673.452 353.301 684.415 389.844 684.415" stroke="black" stroke-width="16" stroke-linecap="round" stroke-linejoin="round"/>
<path d="M499.474 771.022C469.512 778.331 443.932 781.985 422.733 781.985C401.535 781.985 383.263 778.331 367.919 771.022" stroke="black" stroke-width="16" stroke-linecap="round" stroke-linejoin="round"/>
<path d="M325.163 564.919C305.788 564.919 290.081 549.212 290.081 529.837C290.081 510.462 305.788 494.756 325.163 494.756C344.538 494.756 360.244 510.462 360.244 529.837C360.244 549.212 344.538 564.919 325.163 564.919Z" stroke="black" stroke-width="12" stroke-linecap="round" stroke-linejoin="round"/>
<path d="M355.859 514.489C345.627 517.412 335.395 518.874 325.163 518.874C314.931 518.874 304.699 517.412 294.467 514.489" stroke="black" stroke-width="12" stroke-linecap="round" stroke-linejoin="round"/>
<path d="M325.163 536.415C319.108 536.415 314.2 531.507 314.2 525.452C314.2 519.397 319.108 514.489 325.163 514.489C331.218 514.489 336.126 519.397 336.126 525.452C336.126 531.507 331.218 536.415 325.163 536.415Z" fill="black"/>
<path d="M476.452 566.015C457.077 566.015 441.37 550.308 441.37 530.933C441.37 511.558 457.077 495.852 476.452 495.852C495.827 495.852 511.533 511.558 511.533 530.933C511.533 550.308 495.827 566.015 476.452 566.015Z" stroke="black" stroke-width="12" stroke-linecap="round" stroke-linejoin="round"/>
<path d="M507.148 515.585C496.916 518.509 486.684 519.97 476.452 519.97C466.22 519.97 455.988 518.509 445.756 515.585" stroke="black" stroke-width="12" stroke-linecap="round" stroke-linejoin="round"/>
<path d="M476.452 537.511C470.397 537.511 465.489 532.603 465.489 526.548C465.489 520.493 470.397 515.585 476.452 515.585C482.507 515.585 487.415 520.493 487.415 526.548C487.415 532.603 482.507 537.511 476.452 537.511Z" fill="black"/>
<path fill-rule="evenodd" clip-rule="evenodd" d="M271.444 473.049C271.444 480.942 294.832 480.942 315.296 480.942C335.761 480.942 376.689 484.889 376.689 480.942C376.689 476.996 339.43 465.156 315.296 465.156L311.711 465.156C289.24 465.175 271.444 465.55 271.444 473.049ZM486.319 465.156C462.185 465.156 424.926 476.996 424.926 480.942C424.926 484.889 465.854 480.942 486.319 480.942C506.783 480.942 530.17 480.942 530.17 473.049C530.17 465.55 512.375 465.175 489.904 465.156L486.319 465.156Z" fill="black" stroke="black" stroke-width="16" stroke-linecap="round" stroke-linejoin="round"/>
<path fill-rule="evenodd" clip-rule="evenodd" d="M780.158 558.149C796.71 560.832 817.875 546.4 830.625 522.423C845.263 494.89 843.263 465.198 826.155 456.102C824.74 455.349 823.264 454.762 821.741 454.331C834.554 436.456 835.521 409.734 822.262 386.77C815.68 375.369 806.542 366.541 796.33 360.807C799.377 344.385 796.963 327.254 788.242 312.148C779.044 296.216 764.386 285.234 747.546 279.943C746.506 270.56 743.587 261.328 738.634 252.748C725.08 229.272 699.672 216.542 672.895 216.935C664.82 189.184 641.765 169.156 614.585 169.156C603.411 169.156 592.933 172.541 583.909 178.455C570.288 164.649 550.762 156 529.074 156C505.748 156 484.924 166.005 471.254 181.669C458.92 173.737 444.359 169.156 428.763 169.156C384.261 169.156 348.185 206.458 348.185 252.474L348.187 253.181C345.332 252.715 342.4 252.474 339.415 252.474C308.535 252.474 283.504 278.243 283.504 310.03C283.504 319.935 285.934 329.255 290.215 337.394C266.876 370.717 275.603 400.88 316.393 427.881C339.846 443.407 438.773 449.098 497.617 444.325C541.002 440.806 632.011 411.391 649.667 408.148C658.006 406.617 646.312 417.58 614.585 441.037C651.946 470.809 670.813 492.144 671.187 505.044L671.192 505.432C671.192 518.033 680.445 566.81 698.952 651.761L700.096 657.007L741.627 558.149H780.158Z" fill="black" stroke="black" stroke-width="12" stroke-linecap="round" stroke-linejoin="round"/>
<path fill-rule="evenodd" clip-rule="evenodd" d="M429.311 516.681C432.6 487.081 440.274 459.674 509.341 459.674C578.407 459.674 590.44 492.692 593.535 513.328C596.631 533.964 568.541 594.519 514.822 594.519C461.104 594.519 426.022 546.281 429.311 516.681Z" fill="#0C0C0C" stroke="black" stroke-width="8" stroke-linecap="round" stroke-linejoin="round"/>
<path d="M738.467 761.156C653.847 690.785 586.973 627.2 537.844 570.4C488.716 513.6 445.595 450.015 408.481 379.644" stroke="black" stroke-width="12" stroke-linecap="round" stroke-linejoin="round"/>
<path d="M401.407 718.45L403.7 744.661" stroke="black" stroke-width="16" stroke-linecap="round" stroke-linejoin="round"/>
<path d="M375.096 718.45L372.803 744.661" stroke="black" stroke-width="16" stroke-linecap="round" stroke-linejoin="round"/>
<path d="M430.012 720.721L433.673 746.776" stroke="black" stroke-width="16" stroke-linecap="round" stroke-linejoin="round"/>
<path d="M346.492 721.817L342.83 747.872" stroke="black" stroke-width="16" stroke-linecap="round" stroke-linejoin="round"/>
<path d="M459.984 726.499L466.028 747.575" stroke="black" stroke-width="16" stroke-linecap="round" stroke-linejoin="round"/>
<path d="M316.519 731.98L310.475 753.057" stroke="black" stroke-width="16" stroke-linecap="round" stroke-linejoin="round"/>
<path d="M492.896 726.074L499.477 744.114" stroke="black" stroke-width="16" stroke-linecap="round" stroke-linejoin="round"/>
<path d="M524.689 738.133L530.17 756.77" stroke="black" stroke-width="16" stroke-linecap="round" stroke-linejoin="round"/>
<path d="M554.509 754.441L560.533 780.89" stroke="black" stroke-width="16" stroke-linecap="round" stroke-linejoin="round"/>
</svg>
